<svg aria-hidden="true" style="position:absolute;width:0;height:0" xmlns="http://www.w3.org/2000/svg" overflow="hidden"><defs>

<symbol id="icon-antenna" viewBox="0 0 32 32"><path fill="var(--color1, #212121)" d="M30.8 22l-8.5-8.4 1-4.6.7.1a2.1 2.1 0 10-2-1.4l-5 .6L9 0 8.6 0l-.4.1-1.5 1.5c-.2.3-.2.6 0 .8l.8.8a14.9 14.9 0 002.7 17.7v6.8H3.6a2.7 2.7 0 00-2.6 2.7v1c0 .3.2.6.5.6h24.5c.3 0 .6-.3.6-.6v-1c0-1.5-1.2-2.7-2.7-2.7h-6.4V25a14.6 14.6 0 0010.1-1.5l.8.8.4.2s.3 0 .4-.2l1.5-1.5c.2-.2.2-.5 0-.8zM23.3 6.3c.2-.2.4-.3.7-.3A1 1 0 0124 8a1 1 0 01-.7-1.8zm-1.2 3.5l-.6 3-1.2-1.2 1.8-1.8zm-.6-.9l-2 2-1.4-1.6 3.4-.4zm2.5 20c1 0 1.6.7 1.6 1.6v.5H2.1v-.5c0-1 .7-1.6 1.6-1.6H24zm-7.5-2.1v1h-5.3v-1h5.3zm-5.3-1.1v-4c0-1.3 1.2-2.4 2.7-2.4 1.5 0 2.6 1 2.6 2.3v4.1h-5.3zm6.4-1.7v-2.4c0-1.8-1.7-3.4-3.7-3.4-1.4 0-2.6.6-3.3 1.8a13.8 13.8 0 01-2.2-16l18.5 18.8a13.6 13.6 0 01-9.4 1.1h.1zm11.3-.7l-.7-.8L8.6 2.7l-.8-.6.7-.8 8 8 13.2 13.1-.8.8z"/><path fill="var(--color2, #2196f3)" d="M13.9 20.3a1.6 1.6 0 100 3.2 1.6 1.6 0 100-3.2zm.4 2a.6.6 0 11-.4-1 .5.5 0 01.4 1z"/></symbol>

<symbol id="icon-astronaut" viewBox="0 0 32 32"><path fill="var(--color2, #2196f3)" d="M32 4.5c0-.2-.3-.3-.5-.3l-1.9-.3-.8-1.8c-.2-.3-.8-.3-1 0L27 4l-1.8.3a.5.5 0 00-.3.9L26 6.4l-.3 2a.5.5 0 00.8.5l1.7-1L30 9h.2a.5.5 0 00.6-.6l-.4-1.9L31.8 5c.2 0 .2-.3.2-.5zM29.5 6l-.2.4.2 1.2-1-.6a.5.5 0 00-.4 0l-1 .6.1-1.2V6l-1-.8 1.2-.2c.2 0 .3-.1.4-.3l.5-1 .5 1 .4.2 1.1.2-.8.8zm-3.4 14.6h-1v1h1v-1zm0 2.2h-1v1h1v-1zm1.1-1.1h-1v1h1v-1zm-2.1 0H24v1h1v-1zm-2.7 4.8h-1v1h1v-1zm0 2.1h-1v1h1v-1zm1-1h-1v1h1v-1zm-2 0h-1.1v1h1v-1zM16 24.1h-1v1.1h1v-1zm0 2.2h-1v1h1v-1zm1-1h-1v1h1v-1zm-2 0h-1.1v1h1v-1zM5.8 6H4.8v1h1v-1zm0 2.1H4.8v1.1h1v-1zM7 7.2H5.8v1h1v-1zm-2.2 0h-1v1h1v-1z"/><path fill="var(--color1, #212121)" d="M24.7 14.2c-.3-.4-.7-.7-1.1-.8-.5 0-1 .1-1.4.4l-1.3 1-1.9 1.4-1.4-.6a7 7 0 00-2.8-13.2A7 7 0 009 13H6l-3.2 1.6-2 1a1.8 1.8 0 101.8 3L4 18l2.3-1.2h1.3l-5.4 5.4-1.4 1.3a1.6 1.6 0 000 2.3 1.6 1.6 0 002.4 0l1.4-1.3 1.7-1.2.9.9-1.8 1.7-1.3 1.4a1.6 1.6 0 000 2.3 1.6 1.6 0 002.4 0l3.4-3.4 1-1 5.2-5.7 3.5.5a.5.5 0 00.2 0h.1l3.2-2.2h.1l1.3-1.3a1.8 1.8 0 00.2-2.3zM2.2 17.8h-.6a.7.7 0 01-.2-1.3l1.3-.6.3 1 .2.4-1 .4zM5.7 16l-1.6.7-.3-.7-.1-.5 2-1V16zm15-6.7c0 1-.1 1.8-.5 2.6l-4.2-2c0-.5-.3-1-.8-1.3l1.5-4.9c2.4.8 4.1 3 4.1 5.6zM9 9.3a5.9 5.9 0 016.6-5.8L14 8.2c-1 0-1.9.8-1.9 1.9v.2a1.8 1.8 0 003.5.7l3.9 1.8A5.9 5.9 0 019 9.3zm6 .8c0 .5-.4.8-.9.8s-.8-.3-.8-.8.4-.8.8-.8.8.4.8.8zm-12.5 15c-.2.3-.6.3-.9 0a.6.6 0 010-.8l1-1 .9.9-1 1zm3.2 3.7c-.2.3-.6.3-.8 0a.6.6 0 010-.8l1-.9.4.4.4.4-1 1zm3.5-3.4l-1.7 1.8-.5-.4-.4-.5 1.8-1.8v-.3h.1V24l-.1-.2-1.6-1.6h-.1l-.1-.1h-.7l-1.7 1.4-1-1 2.5-2.3 4.4 4.3-1 .9zm6.8-7l-.4.1-4.8 5.3-4.4-4.3 2.9-2.8.1-.4c0-.3-.2-.5-.5-.5H6.7v-1.6h3a7 7 0 006.4 2l2.5 1 .1.8.2.9-3-.5zm4 .2l-.3-1.6 1.5-1 .4.4.5.8-2 1.4zm3.8-2.9l-.8.8-1-1.2.9-.6c.1-.2.3-.2.5-.2a.7.7 0 01.5 1.2z"/><path fill="var(--color1, #212121)" d="M13.6 18.6l-2.2-2.2a.5.5 0 00-.7 0l-2.2 2.2a.5.5 0 000 .7l2.2 2.1.3.2c.1 0 .3 0 .4-.2l2.2-2.1a.5.5 0 000-.7zm-2.5 1.7l-1.4-1.4 1.4-1.3 1.3 1.3-1.3 1.4zM17 5L17 6.1s1.8.5 1.8 2.2h1c0-2-1.7-3-2.6-3.2zm2.6 4.3h-1v1h1v-1z"/></symbol>

<symbol id="icon-clock" viewBox="0 0 32 32"><path fill="var(--color1, #212121)" d="M31.3 15.3a15.3 15.3 0 10-19.9 14.6h.5l.3-.5L16 17.2a2 2 0 10-.8-3.6L10 8.5a.6.6 0 10-1 .9l5.2 5c-.2.3-.2.6-.2.9 0 .6.3 1.1.7 1.5l-3.6 11.7a14 14 0 1110.6-.4h-.1l-.4-1.9a.6.6 0 00-1-.3l-3.9 3.4a.6.6 0 00.2 1.1l5 1.6h.1a.6.6 0 00.7-.7l-.4-1.9c5.5-2.3 9.3-7.7 9.3-14zM16 14.6a.6.6 0 010 1.3.6.6 0 010-1.3zm2.1 14.9l2.2-2 .6 2.9-2.8-1z"/><path fill="var(--color2, #2196f3)" d="M15.4 3.2v1.3a.6.6 0 001.2 0V3.2a.6.6 0 00-1.2 0zM3.9 14.6a.7.7 0 000 1.4h1.3a.6.6 0 000-1.3H3.9zM28 16a.6.6 0 000-1.3h-1.3a.6.6 0 000 1.3h1.3z"/></symbol>

<symbol id="icon-company_1" viewBox="0 0 29 32"><path d="M3.8 0l4.7 4.5h13v12.3l4.7 4.4V0H3.8z"/><path d="M0 4.2v20.6h21.8v-8.2L8.6 4.2H0zm17.6 17.6H3.5V8h1v12.9h13.1v1zM6.3 28.6l.5-1h.5L6.5 29v.8H6V29l-.7-1.6h.5l.4 1zm2.2.8h-.8l-.1.5H7l.9-2.3h.4l.9 2.3h-.5l-.2-.5zM8 29h.5l-.3-.8-.3.8zm2.2.2V29l.4-.2-.1-.3-.1-.2.1-.5.5-.1.4.1c.2 0 .2.2.2.4s-.1.3-.3.4l-.1.2.4.4v-.4h.4c0 .4 0 .5-.2.7l.3.5h-.5l-.1-.2-.6.2c-.2 0-.4 0-.5-.2a.6.6 0 01-.2-.5zm.8.3h.3l-.4-.6h-.1l-.1.3v.2l.3.1zm-.2-1.3l.1.2h.1l.2-.2V28h-.3v.2zm4.1 1c0 .2 0 .4-.2.5l-.6.2c-.2 0-.6-.1-.7-.3a1 1 0 01-.3-.8v-.1l.1-.7a.8.8 0 01.9-.4c.2 0 .5 0 .6.2.2.1.2.3.2.6h-.4l-.1-.4H14l-.4.1-.1.5v.2l.1.5.4.2h.3l.1-.4h.4zm2.2-.4v.6a.9.9 0 01-1 .5l-.4-.1-.4-.4a1.3 1.3 0 010-.7V28a.9.9 0 01.9-.4l.5.1.3.4.1.6v.1zm-.4-.1c0-.3 0-.5-.2-.6a.4.4 0 00-.3-.1l-.4.1v1.2l.4.2c.2 0 .3 0 .3-.2l.2-.5v-.1z"/></symbol>

<symbol id="icon-company_2" viewBox="0 0 25 32"><path d="M10.5 1.8h.5c.8 0 1.5.2 2.2.4V.4c-1-.2-2-.4-3.2-.4h-.2C6.4 0 3 1 .4 2.6V20c2.5-1.3 5.4-2.2 8.4-2.3h.7v-1.9a21 21 0 00-6.8 1.3H3l-.6.1V3.6l.2-.2c2.2-1 4.6-1.5 7.3-1.6h.7z"/><path d="M14.8 3.7a16 16 0 01-3.5-.5h.1v17.3c1.2.3 2.3.5 3.4.4h.1c3.4 0 6.6-.9 9.3-2.5V1.3a19.3 19.3 0 01-9.3 2.5zm7 .2l.5-.1v13.6h-.2a16.9 16.9 0 01-8.6 1.7h.1-.4v-14h1.6a21 21 0 007-1.3h-.1zM1.6 26a1 1 0 00-.7-.2H.6a1 1 0 00-.6 1V29l.1.5.2.3.4.2h.7c.3-.2.6-.5.6-1v-.2h-.6v.4l-.3.2H1l-.3-.1v-2.8a.3.3 0 01.2-.2c.1 0 .2 0 .3.2v.5H2v-.3c0-.3-.1-.5-.3-.7zm3.6 0a1.1 1.1 0 00-1-.1c-.2 0-.3 0-.4.2l-.2.3V29.4l.2.3.3.2a1 1 0 00.8 0c.1 0 .2 0 .3-.2.2-.2.3-.4.3-.7V26.3l-.3-.3zM5 29v.3l-.4.2s-.2 0-.3-.2l-.1-.3v-2.3l.1-.1.3-.2c.1 0 .2 0 .3.2l.1.3V29zm5 1v-4.2h-.5L8.7 28 8 25.7h-.6V30H8v-2.6l.7 1.8h.3l.6-1.8V30h.6zm3.5-3.9l-.3-.2h-1.4V30h.6v-1.7h.3l.6-.1.3-.3.2-.4a3 3 0 000-1.1l-.3-.4zm-.3 1.3v.3H13a.6.6 0 01-.3 0h-.3v-1.3h.6l.2.2v.8zm3.2-1.6h-.5l-1 4.3h.7l.2-1h.8l.1 1h.7l-1-4.3zm-.6 2.8l.3-1.5.3 1.5h-.6zm4.5-.2l-1-2.6h-.5V30h.6v-2.6l1 2.6h.5v-4.3h-.6v2.6zm3.7-2.6l-.5 1.7-.5-1.7h-.7l.9 2.5V30h.6V28l.8-2.4H24zM0 31.1h.3v.9h.2v-.9h.3H0zm2.5 0L2 32h.2v-.2h.5v.2h.3l-.5-1h-.1zm0 .5v-.4l.2.4h-.3zm2.4 0h.2v.2h-.4l-.1-.3c0-.2 0-.4.3-.4l.2.2h.2c0-.2-.2-.3-.4-.3h-.4a.5.5 0 00-.1.5v.4a.5.5 0 00.5.1c.1 0 .3 0 .4-.2v-.4h-.4v.2zm2.5-.6H7v1h.7v-.2h-.4V31zm2 0h-.2v1h.2v-1zm2 .6l-.3-.6h-.2v1h.2v-.6l.3.6h.2v-1h-.2v.6zm1.9 0h.5v-.2h-.5V31h.5-.7v.9h.7v-.2h-.5v-.2zm4.5-.2h-.4V31h-.2v1h.2v-.4h.4v.4h.2v-1h-.2v.4zm1.9.2h.4v-.2h-.4V31h.5-.7v.9h.7v-.2h-.5v-.2zm2.5 0l.2-.3V31a.6.6 0 00-.4 0h-.4v.9h.2v-.4h.2l.3.4h.2l-.1-.2-.2-.2zm-.2-.2h-.2V31h.4v.2a.7.7 0 01-.2 0zm2 .2h.6v-.2H24V31h.5-.7v.9h.7v-.2h-.5v-.2z"/></symbol>

<symbol id="icon-company_3" viewBox="0 0 31 32"><path d="M4.7 31.1l.2.2-.4.3a1.5 1.5 0 01-.6.1h-.6c-.3-.2-.6-.5-.7-.8a1.6 1.6 0 010-1.2c.1-.3.4-.6.7-.7a1.6 1.6 0 011.3 0l.3.2-.1.2h-.3a1 1 0 00-.6-.2h-.3l-.4.3-.2.3v1l.2.3.3.2h.7c.1 0 .3 0 .4-.2zm4.5-.8c0 .2 0 .4-.2.6l-.2.4-.5.3H7.1l-.4-.3-.3-.5c-.2-.4-.2-.7 0-1.2l.3-.4.4-.3h1.2c.2 0 .3.2.5.3l.2.4.2.6zm-.5 0v-.5l-.2-.3-.4-.2c-.2-.1-.5-.1-.8 0l-.5.5a1.5 1.5 0 000 1s0 .2.2.3l.3.2H8c.3 0 .5-.3.5-.6.1-.1.2-.3.1-.4zm3.4.5h.2v-.1l1-1.8h.4v2.8h-.3v-2.2l-1 1.7H12.1l-1-1.7v2.2h-.3v-2.8h.4l1 1.8v.1zm3.8-.1v1h-.4v-2.8h1.3l.3.3.2.2v.7l-.2.3-.4.2a1.4 1.4 0 01-.4 0h-.4zm0-.3h.7l.2-.2.2-.2v-.2-.1c0-.2 0-.3-.2-.4a.7.7 0 00-.5-.1h-.4v1.2zm5 1.3h-.3v-.1l-.3-.7H19l-.3.7h-.4l1-2.6h.4l1.2 2.8zm-1.8-1h1l-.5-1.2v-.3.2l-.1.1-.4 1.2zm3.5-1.8h.1l1.7 2.1v-2h.3v2.7h-.3l-1.7-2.2v2.2h-.3v-2.8h.2zm5 1.6v1.2h-.4v-1.2L26 29h.5l.7 1.2.1.2V30l.8-1v-.2h.6l-1.2 1.6zm-15.7-6.2h.6A13.7 13.7 0 0021 11.5L18.2 9c.6 2.9.3 5.8-.8 8.6-1.1 2.7-3 5.1-5.4 6.8z"/><path d="M11 24.2c2.6-1.8 4.6-4.3 5.7-7.2 1.2-2.8 1.3-6 .6-8.9l-4.1-3.8a17.8 17.8 0 01-2.3 19.9zm13.7-9.5a14 14 0 01-7 9v.1a13 13 0 008.7-7.6l-1.7-1.5z"/><path d="M24 14.3L21.7 12a14.2 14.2 0 01-8 12.4l1.7-.2c2.2-.9 4.1-2.2 5.7-4 1.4-1.6 2.4-3.7 3-6zM11.3 2.7L8.5 0C6 1 3.9 2.5 2.3 4.6A13.1 13.1 0 000 11.8c0 2.8 1 5.5 2.8 7.8 1.9 2.2 4.3 3.7 7.2 4.4a17.5 17.5 0 001.3-21.4zm19.2 11.1c0-3.2-1.4-6.4-3.9-8.9a13.6 13.6 0 00-14.2-2.8h.1l17.1 16.4c.6-1.5 1-3 1-4.7z"/></symbol>

<symbol id="icon-company_4" viewBox="0 0 60 32"><path d="M9.2 9.5a3 3 0 000 6h.1a3 3 0 000-6zm22.5-.9c0-2.3-.9-4.4-2.5-6a8.9 8.9 0 00-12.5 0 8.5 8.5 0 00-2.6 6v12.5s17.6-1.8 17.6-12.5zM0 25.3a6 6 0 001.8 4.2 6.2 6.2 0 008.7 0 6 6 0 001.8-4.2v-8.8S0 18 0 25.3zm6.1 1.5c-.3 0-.6 0-.9-.2-.2-.2-.4-.4-.5-.8l-.1-.6c0-.4.1-.7.4-1a1.6 1.6 0 011.8-.4l.7.6.3.9a1.6 1.6 0 01-1.6 1.6H6zm12.5-1h-1.3v1.4h-.5V24h2v.3h-1.5v1.2h1.3v.2zm3.1 0l-.1.7c0 .2-.2.4-.5.5-.1.2-.3.2-.6.2l-.7-.2-.5-.5-.1-.8v-.2l.1-.8.5-.5c.2-.2.4-.2.7-.2l.6.1c.3.2.4.4.5.6l.1.8v.2zm-.3-.3c0-.4-.1-.6-.3-.9a.7.7 0 00-.6-.3c-.3 0-.5.2-.6.3-.2.3-.3.5-.3.9v.2c0 .3 0 .7.3.9.1.2.3.3.6.3s.5-.1.6-.3l.3-.9v-.2zm1.9.2l-.8-.3a.7.7 0 01-.2-.5c0-.3 0-.5.3-.7.2-.2.5-.2.8-.2l.6.1.3.3.2.5H24l-.1-.4a.7.7 0 00-.5-.2h-.1l-.4.1c-.1.2-.2.2-.2.5l.1.3.6.2.6.3c.2 0 .3.1.4.3v.3c0 .3 0 .6-.2.7l-.8.2-.6-.1-.5-.3-.1-.5h.4c0 .1 0 .3.2.4l.6.2c.2 0 .4 0 .5-.2.1 0 .2-.1.2-.4 0-.1 0-.2-.2-.3l-.6-.3zm4-1.4h-1.1v2.9h-.4v-2.9h-1V24h2.4v.3zm2.2 1.4H28v1h1.6v.4h-2V24h2v.3h-1.5v1h1.3v.4zm2 .2h-.8v1.3h-.5V24h1c.4 0 .7 0 .9.3.2.1.3.3.3.7 0 .2 0 .3-.2.5l-.4.3.7 1.4h-.4l-.7-1.3zm-.8-.4h.6l.5-.1c.1-.1.2-.2.2-.5l-.2-.4-.5-.2h-.7v1.2zm3.8.5v1.2h-.4V24h1.2c.3 0 .6 0 .7.3.3.2.4.4.4.7s0 .5-.3.7c-.2.1-.5.3-.8.3h-.8zm0-.4h.8l.5-.1.1-.5-.1-.4a.7.7 0 00-.5-.3h-.8v1.3zm4.2.1h-1.3v1h1.5v.4h-2V24h2v.3h-1.5v1h1.3v.4zm3-1.4h-1v2.9h-.4v-2.9h-1V24h2.4v.3zm2.2 1.4h-1.3v1h1.6v.4h-2V24h2v.3h-1.6v1H44v.4zm2 .2H45v1.3h-.4V24h1c.4 0 .7 0 .8.3.2.1.4.3.4.7l-.2.5-.4.3.7 1.4h-.4l-.8-1.3zm-.8-.4h.7l.5-.1.1-.5-.1-.4-.5-.2H45v1.2zm3.3.2c-.4 0-.6-.2-.8-.3a.7.7 0 01-.3-.5c0-.3.2-.5.3-.7.3-.2.6-.2.8-.2l.6.1c.2 0 .3.2.4.3l.2.5H49l-.1-.4a.7.7 0 00-.6-.2.8.8 0 00-.5.1l-.1.5.1.3.6.2.6.3c.2 0 .3.1.4.3v.3c0 .3 0 .6-.2.7a1.6 1.6 0 01-.9.2l-.6-.1-.4-.3-.1-.5h.4c0 .1 0 .3.2.4l.5.2c.3 0 .4 0 .6-.2l.1-.4-.1-.3-.6-.2z"/></symbol>

<symbol id="icon-company_5" viewBox="0 0 40 32"><path d="M3 26.8l.3.6v.1c0 .3-.2.6-.4.8-.2.2-.7.4-1 .3H0v-4.4h1.8c.4 0 .7.1 1 .4.3.2.4.4.4.7v.1c0 .2 0 .5-.2.7l-.5.2.6.5zM1 26h.7c.2 0 .4 0 .6-.2l.1-.3v-.2l-.1-.3-.6-.2H1v1.2zm1.3 1.7a.5.5 0 00.2-.5c0-.2 0-.3-.2-.4l-.5-.2H.9v1.2h.8l.5-.1zm4.6.8l-1-1.7h-.4v1.7h-1v-4.4h1.8c.4 0 .8.2 1.2.4a1.4 1.4 0 010 1.8c-.2.3-.4.4-.7.5l1 1.7h-.9zm-1.4-2.3h.7c.5 0 .7-.2.7-.6v-.1l-.1-.4A.8.8 0 006 25h-.7v1.3zm6.2 1.4H9.8l-.3.9h-1l1.7-4.3h1l1.6 4.3h-1l-.2-.9zm-.3-.7l-.6-1.7L10 27h1.4zm6.3 1.6h-1l-1.9-3v3H14v-4.4h.8l2 3v-3h.9v4.4zm4.9-1c-.2.3-.4.6-.8.7l-1.2.3h-1.6v-4.4h1.6l1.2.3c.4.2.6.5.8.8a2.5 2.5 0 010 2.3zm-1-.2a1.6 1.6 0 000-2c-.3-.3-.7-.4-1-.4h-.7v3h.6c.4 0 .8-.2 1.1-.5zM12.1 0s11.2 4.2 11 10.4v10.4s-11.2-4.3-11-10.4V0zm21 18.4c2.1-1.5 4.5-2.4 7-2.7v-3.2a15 15 0 00-7 5.8z"/><path d="M31.8 19.3c1.7-3.5 4.8-6.2 8.4-7.5V2.4s-16 6.1-15.7 14.8V32l2-.7v-1.5c.3-4 2.2-7.8 5.3-10.5z"/><path d="M30.3 24.9c0-1 .3-2 .5-3.1-2 2.4-3.3 5.5-3.4 8.9 1.3-.6 2.4-1.1 3.3-1.7l-.2.1c-.3-1.4-.3-2.8-.2-4.2zm.6 0c-.1 1.3 0 2.6.2 3.8 4.4-2.6 9.3-6.6 9-11.5v-.5c-3.2.4-6 1.9-8.2 4-.6 1.4-.9 2.7-1 4.2z"/></symbol>

<symbol id="icon-company_6" viewBox="0 0 62 32"><path d="M31.1 14.9c-.3-.5-.4-1-.4-1.5v-2c0-.7.2-1.2.4-1.5.3-.3.7-.5 1.4-.5.6 0 1 .1 1.2.4.3.4.5.8.5 1.3v.4H33v-.9l-.1-.2a.6.6 0 00-.4-.2c-.2 0-.3 0-.4.2l-.2.3v3l.1.7.2.2h.6c.2-.1.2-.3.2-.4v-1h1.2V13.8c0 .4-.2.9-.5 1.2-.2.3-.7.4-1.2.4-.7 0-1.1-.2-1.4-.4zm4.5 0c-.3-.4-.4-.8-.4-1.4v-2.2c0-.7.1-1 .4-1.4s.7-.5 1.4-.5c.6 0 1 .1 1.3.5s.4.7.4 1.4v2.1c0 .7 0 1.1-.4 1.4-.2.4-.7.6-1.4.6-.6 0-1-.2-1.4-.5zm1.9-.6l.1-.6v-2.6l-.1-.7-.2-.2h-.7l-.2.2-.2.7v2.6c0 .2 0 .5.2.7l.5.2c.2 0 .4-.1.5-.3zm2.6-4.8h1l1 4 .9-4H44v5.8h-.8v-4l-.9 4h-.7l-.9-4.2v4.2H40l.2-5.8zm5.4 0h1.8c1 0 1.5.5 1.5 1.6 0 1-.5 1.6-1.6 1.6h-.6v2.6h-1.1V9.5zM47 12h.2l.5-.2c0-.3.2-.5 0-.7v-.5c0-.2 0-.3-.2-.3h-.9V12h.4zm3.5-2.5h1.2l1.2 5.8h-1l-.3-1.4h-1l-.3 1.4h-1l1.2-5.8zm1 3.8l-.4-2.4-.5 2.4h.9zm2.4-3.8h.7l1.5 3.3V9.5h1v5.8h-.8l-1.5-3.5v3.5H54V9.5zm5.4 3.6L58 9.5h1l.8 2.3.7-2.3h1L60.4 13v2.2h-1v-2.2zm-26.5 4.7v.4H32v2.3h-.3v-2.4h-1v-.4h2.1zm2.9 2.7h-.3v-.1l-.3-.6h-1.3l-.3.7h-.4l1.1-2.7h.4l1.2 2.7zm-1.8-1h1l-.5-1V18l-.1.3-.4 1zm3.7.7h.2a1 1 0 00.4 0l.1-.1v-.6h-.5v-.3h.9v1c-.2.2-.5.3-.8.3H37a1.3 1.3 0 01-.8-1.3l.1-.6c.1-.3.4-.6.7-.7h1.2c.2 0 .3.1.4.3H38a1.3 1.3 0 00-.9 0s-.2 0-.2.2c-.2.1-.2.2-.2.3a1.4 1.4 0 000 1c.1.3.5.5.9.5zm3.6 0h1.2v.3h-1.6v-2.7h.4v2.4zm2.5.3h-.4v-2.7h.4v2.7zm1.4-2.7l1.6 2.1v-2h.4v2.6h-.3l-1.7-2.1v2.2h-.3v-2.7h.2zm4.8 0v.3h-1.4v.9h1.2v.3h-1.1v.9h1.3v.3h-1.8v-2.7H50zM9.9 1.4l17 4.5v16l-17-4.6v-16zM9 0v18l19 5.2v-18L9 0z"/><path d="M19.1 31.6L0 26.5V8.3l19.1 5.1v18.1z"/><path d="M9.2 1.2l16.7 4.4-7.1 6.8L2 7.9l7-6.7zM8.8 0L0 8.3l19.1 5.2L28 5.1 8.8 0zm11.4 30.6l7.8-7.4-7.8-2v9.4z"/></symbol>

<symbol id="icon-diagram" viewBox="0 0 32 32"><path fill="var(--color2, #2196f3)" d="M14.9 15H16v4.7h-1.1V15zm4.3 2.1h1v2.6h-1v-2.6zm-8.5 1.6h1v1h-1v-1zm-3.2-.6h1v1.6h-1v-1.6z"/><path fill="var(--color1, #212121)" d="M1.6 28.3h25.6c.9 0 1.6-.7 1.6-1.6v-2.2c0-.9-.7-1.6-1.6-1.6h-.5V9.7l3-2.9.7.2a1.6 1.6 0 10-1.5-1l-2.2 2.2V6.9c0-.8-.8-1.6-1.6-1.6H3.7c-.9 0-1.6.8-1.6 1.6v16h-.5c-1 0-1.6.8-1.6 1.6v2.2c0 1 .7 1.6 1.6 1.6zM30.4 4.8h.2a.5.5 0 11-.2 1.1.5.5 0 010-1zM3.2 7c0-.2.2-.5.5-.5h21.4c.2 0 .5.3.5.5v2.3l-1.1 1V8c0-.3-.2-.5-.5-.5H4.8c-.3 0-.5.2-.5.5v13.4c0 .3.2.5.5.5H24c.3 0 .5-.2.5-.5v-9.7l1.1-1v12.2H3.2V7zM8 14A1.6 1.6 0 109 16.6l1.8 1 .7-.1 4-4.5 3.8 3h.7l3.4-3.3v8.1H5.3V8.5h18.2v2.7l-3.8 3.6-4-3a.6.6 0 00-.7.1l-4 4.6-1.4-.8v-.2c0-.9-.7-1.6-1.6-1.6zm.5 1.6a.5.5 0 01-1 0 .5.5 0 011 0zm3.2 8.5h5.4v.5c0 .4-.3.6-.6.6h-4.2c-.3 0-.6-.2-.6-.6V24zm-10.6.5c0-.2.2-.5.5-.5h9v.5c0 1 .8 1.6 1.7 1.6h4.2c1 0 1.6-.6 1.6-1.6V24h9.1c.3 0 .5.3.5.5v2.2c0 .3-.2.5-.5.5H1.6a.6.6 0 01-.6-.5v-2.2z"/></symbol>

<symbol id="icon-envelope" viewBox="0 0 43 32"><path d="M38.7 0H4C1.9 0 0 1.6 0 3.7v22.4C0 28.3 1.9 30 4 30h34.7c2.1 0 4-1.6 4-3.8V3.7c0-2.1-1.9-3.7-4-3.7zm0 2.7h.5L21.3 17 3.5 2.7h35.2zm0 24.8H4c-.8 0-1.3-.6-1.3-1.4V5.3l17.8 14.4h1.6L40 5.3v20.8c0 .8-.5 1.4-1.3 1.4z"/></symbol><symbol id="icon-facebook" viewBox="0 0 32 32"><path d="M21.3 5.3h3V.2L20 0c-4.2 0-7 2.7-7 7.5V12H8v5.8h4.8V32h5.6V17.6h4.5l.8-5.6h-5.3V8.2c0-1.6.5-3 2.7-3z"/></symbol>

<symbol id="modal-close" viewBox="0 0 32 32">
<path d="M32 3.2l-3.2-3.2-12.8 12.8-12.8-12.8-3.2 3.2 12.8 12.8-12.8 12.8 3.2 3.2 12.8-12.8 12.8 12.8 3.2-3.2-12.8-12.8 12.8-12.8z"></path>
</symbol>

<symbol id="modal-name" viewBox="0 0 32 32">
<path d="M16 16c4.418 0 8-3.582 8-8s-3.582-8-8-8v0c-4.418 0-8 3.582-8 8s3.582 8 8 8v0zM16 20c-5.333 0-16 2.667-16 8v2c0 1.093 0.907 2 2 2h28c1.093 0 2-0.907 2-2v-2c0-5.333-10.667-8-16-8z"></path>
</symbol>

<symbol id="modal-mail" viewBox="0 0 43 32">
<path d="M37.333 0h-32c-2.187 0-4 1.813-4 4v24c0 2.187 1.813 4 4 4h32c2.187 0 4-1.813 4-4v-24c0-2.187-1.813-4-4-4zM36.533 8.507l-14.133 8.827c-0.303 0.19-0.672 0.303-1.067 0.303s-0.764-0.113-1.075-0.308l0.008 0.005-14.133-8.8c-0.546-0.292-0.911-0.858-0.911-1.51 0-0.943 0.764-1.707 1.707-1.707 0.383 0 0.737 0.126 1.022 0.339l-0.004-0.003 13.387 8.347 13.413-8.373c0.289-0.233 0.661-0.373 1.066-0.373 0.943 0 1.707 0.764 1.707 1.707 0 0.681-0.399 1.268-0.975 1.542l-0.010 0.004z"></path>
</symbol>

<symbol id="modal-tel" viewBox="0 0 32 32">
<path d="M27.429 20.846l-4.206-0.457c-1.006-0.137-2.011 0.229-2.72 0.914l-3.040 3.063c-4.718-2.435-8.468-6.185-10.838-10.764l-0.065-0.139 3.063-3.063c0.709-0.709 1.051-1.714 0.937-2.72l-0.457-4.16c-0.201-1.656-1.598-2.926-3.291-2.926-0.016 0-0.032 0-0.048 0l0.002-0h-2.834c-1.874 0-3.429 1.554-3.314 3.429 0.92 14.132 12.154 25.366 26.202 26.281l0.083 0.004c1.874 0.114 3.429-1.44 3.429-3.314v-2.857c0-1.691-1.234-3.086-2.903-3.291z"></path>
</symbol>

<symbol id="checkbox-off" viewBox="0 0 34 32">
<path d="M30.336 3.563v24.875h-26.539v-24.875h26.539zM30.336 0h-26.539c-2.091 0-3.797 1.6-3.797 3.563v24.875c0 1.963 1.707 3.563 3.797 3.563h26.539c2.091 0 3.797-1.6 3.797-3.563v-24.875c0-1.963-1.707-3.563-3.797-3.563z"></path>
</symbol>

<symbol id="checkbox-on" viewBox="0 0 34 32">
<path fill="#fff" style="fill: var(--color1, #fff); stroke: var(--color1, #fff)" stroke="#fff" stroke-linejoin="miter" stroke-linecap="butt" stroke-miterlimit="4" stroke-width="0.4267" d="M8.448 16.533l-0.149-0.128-0.149 0.128-1.899 1.792-0.171 0.149 0.171 0.171 7.616 7.253 0.128-0.149 16.171-15.424-0.149-0.149-1.877-1.792-0.149-0.149-0.149 0.149-13.973 13.312-5.419-5.163z"></path>
</symbol>

<symbol id="icon-instagram" viewBox="0 0 32 32">
<path d="M31.968 9.408c-0.024-1.403-0.292-2.735-0.763-3.968l0.027 0.080c-0.427-1.109-1.058-2.054-1.854-2.83l-0.002-0.002c-0.8-0.8-1.76-1.44-2.832-1.84-1.151-0.448-2.483-0.721-3.875-0.752l-0.013-0c-1.458-0.070-3.167-0.109-4.885-0.109-0.6 0-1.199 0.005-1.797 0.014l0.090-0.001c-4.352 0-4.896 0.016-6.592 0.096-1.712 0.064-2.88 0.352-3.888 0.736-1.072 0.416-2.032 1.040-2.832 1.856-0.816 0.8-1.44 1.76-1.856 2.832-0.443 1.152-0.711 2.485-0.736 3.877l-0 0.011c-0.070 1.458-0.109 3.167-0.109 4.885 0 0.6 0.005 1.199 0.014 1.797l-0.001-0.090c0 4.352 0 4.896 0.080 6.592 0.030 1.405 0.303 2.737 0.779 3.968l-0.027-0.080c0.4 1.072 1.040 2.032 1.856 2.832 0.8 0.816 1.76 1.44 2.832 1.856 1.008 0.384 2.176 0.656 3.872 0.736 1.712 0.080 2.24 0.096 6.592 0.096s4.896-0.016 6.608-0.096c1.397-0.026 2.724-0.294 3.952-0.763l-0.080 0.027c2.16-0.851 3.837-2.528 4.669-4.633l0.019-0.055c0.384-1.024 0.672-2.176 0.736-3.888 0.080-1.696 0.096-2.24 0.096-6.592 0-4.336 0-4.88-0.080-6.592zM29.088 22.48c-0.064 1.552-0.32 2.4-0.544 2.96-0.552 1.401-1.639 2.488-3.004 3.027l-0.036 0.013c-0.56 0.224-1.424 0.48-2.976 0.544-1.68 0.080-2.192 0.096-6.464 0.096-0.465 0.007-1.013 0.011-1.562 0.011-1.724 0-3.439-0.039-5.144-0.116l0.242 0.009c-1.568-0.064-2.4-0.32-2.96-0.544-0.722-0.271-1.337-0.68-1.839-1.199l-0.001-0.001c-0.518-0.5-0.926-1.108-1.189-1.79l-0.011-0.034c-0.336-0.884-0.535-1.905-0.544-2.972l-0-0.004c-0.068-1.463-0.107-3.179-0.107-4.903 0-0.549 0.004-1.097 0.012-1.643l-0.001 0.083c0-4.272 0.016-4.784 0.096-6.464 0.064-1.568 0.32-2.4 0.544-2.976 0.256-0.688 0.656-1.312 1.2-1.824 0.504-0.519 1.118-0.928 1.806-1.189l0.034-0.011c0.56-0.224 1.408-0.48 2.976-0.544 1.68-0.080 2.192-0.096 6.448-0.096 4.288 0 4.8 0 6.464 0.096 1.568 0.064 2.4 0.32 2.976 0.544 0.688 0.256 1.328 0.656 1.84 1.2 0.528 0.512 0.944 1.136 1.2 1.824 0.208 0.576 0.48 1.424 0.544 2.976 0.080 1.68 0.096 2.192 0.096 6.464s-0.016 4.768-0.096 6.464z"></path>
<path d="M16.064 7.776c-4.542 0-8.224 3.682-8.224 8.224s3.682 8.224 8.224 8.224v0c4.542 0 8.224-3.682 8.224-8.224s-3.682-8.224-8.224-8.224v0zM16.064 21.328c-2.943 0-5.328-2.385-5.328-5.328s2.385-5.328 5.328-5.328v0c2.943 0 5.328 2.385 5.328 5.328s-2.385 5.328-5.328 5.328v0zM26.528 7.456c0 1.060-0.86 1.92-1.92 1.92s-1.92-0.86-1.92-1.92v0c0-1.060 0.86-1.92 1.92-1.92s1.92 0.86 1.92 1.92v0z"></path>
</symbol>

<symbol id="icon-linkedin" viewBox="0 0 32 32"><path d="M32 32V20.3c0-5.7-1.3-10.2-8-10.2a7 7 0 00-6.2 3.5v-3h-6.6V32h6.6V21.4c0-2.8.4-5.4 4-5.4 3.3 0 3.5 3.2 3.5 5.6V32H32zM.5 10.6h6.7V32H.5V10.6zM3.8 0C1.8 0 0 1.6 0 3.8 0 6 1.6 7.7 3.8 7.7a3.8 3.8 0 100-7.7z"/></symbol><symbol id="icon-plane" viewBox="0 0 32 32"><path fill="var(--color5, #fff)" d="M32 0L0 18l10.3 3.7L26 7.1 14 23V32l5.7-6.7 7.4 2.7L32 0z"/></symbol><symbol id="icon-smartphone" viewBox="0 0 21 32"><path d="M18.1 0H3.2C1.5 0 0 1.3 0 3v25.8c0 1.7 1.5 3 3.2 3h15c1.6 0 3.1-1.3 3.1-3V3c0-1.7-1.5-3-3.2-3zM3.2 2.1h15c.6 0 1 .2 1 .9v20.9h-17v-21c0-.6.4-1 1-1zm15 27.8h-15c-.6 0-1-.5-1-1.1v-3h17v3c0 .6-.4 1-1 1z"/><path d="M5.1 27v1.6c-.4.4-1.3.4-1.7 0a.9.9 0 010-1.5c.4-.2 1.3-.2 1.7 0z"/></symbol><symbol id="icon-twitter" viewBox="0 0 32 32"><path d="M32 6c-1.1.6-2.4.9-3.8 1 1.3-.7 2.3-2 2.8-3.4-1.2.7-2.5 1.2-4.1 1.5a6.5 6.5 0 00-11.2 6A18.5 18.5 0 012.2 4c-.5 1-.9 2.1-.9 3.4 0 2.3 1.2 4.3 3 5.4-1.1 0-2.1-.2-3-.8 0 3.3 2.2 6 5.3 6.5a6.3 6.3 0 01-3.1.1c1 2.7 3.2 4.7 6.3 4.7A13 13 0 01-.1 26H0a18 18 0 0010 2.7A18.6 18.6 0 0028.7 9.6c1.5-1 2.4-2 3.4-3.4z"/></symbol></defs></svg>

